<svg width="142" height="20" viewBox="0 0 142 20" fill="none" xmlns="http://www.w3.org/2000/svg">
<g clip-path="url(#clip0_258_656)">
<path d="M13.1577 6.23233H20.7615C21.0444 6.23233 21.1858 6.57379 20.9858 6.7738L8.78508 18.9745C8.58506 19.1746 8.24361 19.0331 8.24361 18.7502V13.1919C8.24361 13.0162 8.10106 12.8747 7.92646 12.8747H0.318263C0.034268 12.8747 -0.107177 12.5311 0.0950452 12.331L12.4958 0.0916301C12.7002 -0.110592 13.0461 0.0419034 13.0362 0.329214L12.8406 5.90414C12.8339 6.08315 12.9776 6.23233 13.1577 6.23233Z" fill="#D5FF02"/>
</g>
<path d="M36.9898 15.0337V3.90363H39.7049V15.0337H36.9898ZM29.7384 15.0337V3.90363H32.4534V15.0337H29.7384ZM31.391 10.5142V8.32194H38.0859V10.5142H31.391ZM44.8562 18.1367C44.4065 18.1367 43.9456 18.0973 43.4734 18.0186C43.0012 17.9399 42.5515 17.8219 42.1243 17.6645C41.7083 17.5183 41.3485 17.3216 41.045 17.0742L41.7027 14.6627C42.0962 15.0337 42.5684 15.3092 43.1192 15.4891C43.6814 15.6689 44.221 15.7589 44.7382 15.7589C45.334 15.7589 45.8231 15.6408 46.2053 15.4047C46.5988 15.1799 46.8967 14.8314 47.0991 14.3592C47.3127 13.8757 47.4364 13.2799 47.4701 12.5716L47.5544 11.1045H47.1497C47.0485 11.8352 46.8686 12.4311 46.61 12.892C46.3627 13.353 46.0423 13.6959 45.6488 13.9207C45.2666 14.1343 44.8112 14.2411 44.2828 14.2411C43.6308 14.2411 43.0855 14.0781 42.6471 13.7521C42.2086 13.426 41.8769 12.937 41.6521 12.2849C41.4385 11.6216 41.3317 10.8009 41.3317 9.82282V6.12965H44.0636V9.14827C44.0636 10.1826 44.1648 10.9246 44.3672 11.3743C44.5808 11.8127 44.9124 12.032 45.3621 12.032C45.5982 12.032 45.8118 11.9645 46.0029 11.8296C46.1941 11.6947 46.3571 11.5036 46.492 11.2562C46.6269 11.0089 46.7281 10.711 46.7955 10.3625C46.8742 10.0027 46.9136 9.60359 46.9136 9.16513V6.12965H49.6287V12.6728C49.6287 13.3811 49.5612 14.0275 49.4263 14.6121C49.3026 15.1967 49.1115 15.7083 48.8529 16.1467C48.6056 16.5852 48.2908 16.9506 47.9086 17.2429C47.5263 17.5464 47.0822 17.7713 46.5763 17.9174C46.0704 18.0636 45.497 18.1367 44.8562 18.1367ZM51.1869 17.8837V10.6829V6.12965H53.4129L53.4466 8.65922L53.7501 8.69295C53.8513 8.06336 54.0312 7.54059 54.2898 7.12461C54.5484 6.70864 54.88 6.39947 55.2848 6.1971C55.7007 5.99474 56.1729 5.89356 56.7013 5.89356C57.4883 5.89356 58.1628 6.08468 58.725 6.46693C59.2983 6.84917 59.7368 7.39443 60.0403 8.10271C60.3439 8.81099 60.4957 9.6598 60.4957 10.6491C60.4957 11.5261 60.3608 12.313 60.0909 13.0101C59.8324 13.7071 59.4332 14.258 58.8936 14.6627C58.3652 15.0675 57.6907 15.2698 56.8699 15.2698C56.3191 15.2698 55.8525 15.1743 55.4703 14.9831C55.088 14.7808 54.762 14.4885 54.4922 14.1062C54.2336 13.724 54.0143 13.2462 53.8345 12.6728H53.5141C53.5815 12.9763 53.6433 13.2855 53.6996 13.6003C53.7558 13.9151 53.8007 14.2186 53.8345 14.511C53.8794 14.8033 53.9019 15.0843 53.9019 15.3541V17.8837H51.1869ZM55.875 13.1281C56.246 13.1281 56.5608 13.0269 56.8194 12.8246C57.0892 12.6222 57.2972 12.3355 57.4433 11.9645C57.5895 11.5935 57.6625 11.1607 57.6625 10.666C57.6625 10.1376 57.5838 9.68791 57.4265 9.31691C57.2803 8.93466 57.0667 8.64235 56.7856 8.43999C56.5046 8.22638 56.1785 8.11958 55.8075 8.11958C55.459 8.11958 55.1611 8.19827 54.9137 8.35567C54.6777 8.50182 54.4809 8.69857 54.3235 8.9459C54.1774 9.182 54.0706 9.43495 54.0031 9.70477C53.9356 9.97459 53.9019 10.2275 53.9019 10.4636V10.8346C53.9019 11.0483 53.93 11.2619 53.9862 11.4755C54.0425 11.6891 54.1268 11.8971 54.2392 12.0994C54.3516 12.2906 54.4865 12.4648 54.6439 12.6222C54.8013 12.7796 54.9812 12.9033 55.1836 12.9932C55.3972 13.0832 55.6276 13.1281 55.875 13.1281ZM65.8818 15.2698C65.1398 15.2698 64.4765 15.1743 63.8919 14.9831C63.3073 14.7808 62.807 14.4885 62.391 14.1062C61.9863 13.724 61.6771 13.2518 61.4635 12.6897C61.2499 12.1275 61.1431 11.4811 61.1431 10.7503C61.1431 10.042 61.2443 9.38998 61.4466 8.79413C61.6602 8.19827 61.9582 7.68674 62.3404 7.25952C62.7339 6.82107 63.2117 6.48379 63.7738 6.2477C64.3472 6.0116 64.988 5.89356 65.6963 5.89356C66.4158 5.89356 67.0454 6.0116 67.585 6.2477C68.1359 6.47255 68.5856 6.80982 68.9341 7.25952C69.2939 7.70922 69.5581 8.26011 69.7267 8.91217C69.8954 9.553 69.9516 10.2894 69.8954 11.1213L62.9306 11.1719V9.75536L68.3439 9.70477L67.3827 10.3625C67.4614 9.80033 67.4276 9.34501 67.2815 8.99649C67.1353 8.63673 66.9217 8.37815 66.6407 8.22076C66.3596 8.05212 66.0561 7.9678 65.73 7.9678C65.3365 7.9678 64.988 8.07461 64.6845 8.28821C64.3922 8.50182 64.1617 8.81099 63.9931 9.21572C63.8244 9.62045 63.7401 10.1151 63.7401 10.6997C63.7401 11.6216 63.9368 12.2906 64.3303 12.7065C64.7351 13.1225 65.2466 13.3305 65.8649 13.3305C66.1685 13.3305 66.4214 13.2911 66.6238 13.2124C66.8262 13.1225 66.9892 13.0157 67.1129 12.892C67.2478 12.7571 67.3489 12.611 67.4164 12.4536C67.4951 12.2962 67.5569 12.1444 67.6019 11.9982L69.9628 12.5042C69.8729 12.9201 69.7267 13.2968 69.5244 13.634C69.3333 13.9713 69.0691 14.2636 68.7318 14.511C68.4057 14.7583 68.0066 14.9438 67.5344 15.0675C67.0735 15.2024 66.5226 15.2698 65.8818 15.2698ZM74.4076 15.0337V3.90363H77.1227V15.0337H74.4076ZM75.7399 11.0707V8.86158H82.2662V11.0707H75.7399ZM75.7399 6.21397V3.90363H82.8732V6.21397H75.7399ZM87.8121 15.2698C86.9127 15.2698 86.1145 15.0956 85.4174 14.747C84.7316 14.3985 84.192 13.8757 83.7985 13.1787C83.405 12.4817 83.2083 11.6104 83.2083 10.5648C83.2083 9.51927 83.405 8.6536 83.7985 7.9678C84.192 7.27077 84.7373 6.75361 85.4343 6.41633C86.1313 6.06782 86.9296 5.89356 87.829 5.89356C88.7284 5.89356 89.5266 6.06782 90.2236 6.41633C90.9207 6.76485 91.4659 7.28763 91.8594 7.98467C92.2529 8.67046 92.4496 9.53613 92.4496 10.5817C92.4496 11.6497 92.2473 12.5323 91.8425 13.2293C91.4378 13.9263 90.8813 14.4435 90.173 14.7808C89.476 15.1068 88.689 15.2698 87.8121 15.2698ZM87.8964 13.2968C88.3011 13.2968 88.6384 13.2068 88.9082 13.0269C89.1781 12.8358 89.3804 12.5491 89.5153 12.1669C89.6502 11.7846 89.7177 11.3125 89.7177 10.7503C89.7177 10.1545 89.6446 9.65418 89.4985 9.24945C89.3523 8.83348 89.1331 8.51869 88.8408 8.30508C88.5597 8.08023 88.1943 7.9678 87.7446 7.9678C87.3624 7.9678 87.0307 8.06336 86.7497 8.25449C86.4799 8.43437 86.2775 8.71543 86.1426 9.09768C86.0077 9.47992 85.9402 9.95773 85.9402 10.5311C85.9402 11.453 86.1089 12.1444 86.4461 12.6053C86.7946 13.0663 87.2781 13.2968 87.8964 13.2968ZM96.5864 15.2698C95.5296 15.2698 94.7314 14.9157 94.1917 14.2074C93.6633 13.4879 93.3991 12.3974 93.3991 10.9358V6.12965H96.1311V10.5817C96.1311 11.4136 96.2547 12.0376 96.5021 12.4536C96.7494 12.8583 97.126 13.0607 97.632 13.0607C97.9355 13.0607 98.1941 12.9876 98.4077 12.8414C98.6325 12.684 98.818 12.4704 98.9642 12.2006C99.1216 11.9196 99.234 11.5991 99.3015 11.2394C99.3802 10.8796 99.4195 10.4861 99.4195 10.0589V6.12965H102.135V11.4249V15.0337H99.976L99.9254 12.2849H99.5882C99.4195 12.982 99.2059 13.5553 98.9473 14.005C98.7 14.4435 98.3852 14.7639 98.003 14.9663C97.6207 15.1686 97.1485 15.2698 96.5864 15.2698ZM103.716 15.0337V9.67105V6.12965H105.909L105.942 8.74354H106.28C106.426 8.11396 106.634 7.58556 106.903 7.15834C107.173 6.73113 107.516 6.41633 107.932 6.21397C108.348 6.00036 108.837 5.89356 109.399 5.89356C110.445 5.89356 111.237 6.25894 111.777 6.9897C112.328 7.72047 112.603 8.88407 112.603 10.4805V15.0337H109.872V10.7841C109.872 9.86217 109.737 9.19324 109.467 8.77726C109.208 8.35005 108.82 8.13644 108.303 8.13644C107.876 8.13644 107.522 8.26573 107.241 8.52431C106.971 8.78289 106.769 9.12578 106.634 9.553C106.499 9.98021 106.431 10.458 106.431 10.9864V15.0337H103.716ZM117.301 15.2698C116.559 15.2698 115.907 15.0843 115.345 14.7133C114.794 14.3311 114.361 13.7914 114.047 13.0944C113.732 12.3861 113.574 11.5429 113.574 10.5648C113.574 9.66542 113.709 8.8672 113.979 8.17017C114.249 7.47313 114.648 6.92787 115.176 6.53438C115.716 6.12965 116.379 5.92728 117.166 5.92728C117.729 5.92728 118.201 6.02847 118.583 6.23083C118.976 6.4332 119.302 6.73675 119.561 7.14148C119.82 7.54621 120.028 8.05774 120.185 8.67608H120.607C120.528 8.29384 120.455 7.93408 120.387 7.5968C120.32 7.24828 120.264 6.92787 120.219 6.63556C120.185 6.33202 120.168 6.06782 120.168 5.84297V2.8918H122.9V10.6829V15.0337H120.674L120.64 12.403H120.269C120.146 13.0775 119.949 13.6284 119.679 14.0556C119.421 14.4716 119.089 14.7808 118.684 14.9831C118.291 15.1743 117.83 15.2698 117.301 15.2698ZM118.279 13.0775C118.628 13.0775 118.92 13.0045 119.156 12.8583C119.404 12.7009 119.6 12.5042 119.747 12.2681C119.893 12.032 120 11.779 120.067 11.5092C120.134 11.2394 120.168 10.9864 120.168 10.7503V10.3962C120.168 10.1826 120.14 9.96897 120.084 9.75536C120.028 9.54176 119.943 9.33377 119.831 9.1314C119.73 8.92904 119.6 8.74916 119.443 8.59176C119.286 8.43437 119.1 8.3107 118.887 8.22076C118.684 8.13082 118.459 8.08585 118.212 8.08585C117.841 8.08585 117.521 8.18703 117.251 8.3894C116.992 8.59176 116.79 8.87845 116.644 9.24945C116.509 9.62045 116.441 10.0589 116.441 10.5648C116.441 11.0707 116.514 11.5148 116.661 11.8971C116.807 12.2681 117.02 12.5604 117.301 12.774C117.582 12.9763 117.908 13.0775 118.279 13.0775ZM124.492 15.0337V10.9021V6.12965H126.718L126.769 9.14827H127.106C127.185 8.36129 127.331 7.73733 127.545 7.27639C127.769 6.8042 128.084 6.4613 128.489 6.2477C128.905 6.03409 129.417 5.92728 130.024 5.92728C130.114 5.92728 130.215 5.93291 130.327 5.94415C130.44 5.94415 130.569 5.95539 130.715 5.97788L130.614 8.87845C130.434 8.78851 130.237 8.73229 130.024 8.70981C129.821 8.67608 129.641 8.65922 129.484 8.65922C129.046 8.65922 128.663 8.74354 128.337 8.91217C128.022 9.08081 127.769 9.33939 127.578 9.68791C127.398 10.0364 127.28 10.4749 127.224 11.0033V15.0337H124.492ZM134.936 18.1367C134.486 18.1367 134.025 18.0973 133.553 18.0186C133.081 17.9399 132.631 17.8219 132.204 17.6645C131.788 17.5183 131.428 17.3216 131.125 17.0742L131.782 14.6627C132.176 15.0337 132.648 15.3092 133.199 15.4891C133.761 15.6689 134.301 15.7589 134.818 15.7589C135.414 15.7589 135.903 15.6408 136.285 15.4047C136.678 15.1799 136.976 14.8314 137.179 14.3592C137.392 13.8757 137.516 13.2799 137.55 12.5716L137.634 11.1045H137.229C137.128 11.8352 136.948 12.4311 136.69 12.892C136.442 13.353 136.122 13.6959 135.728 13.9207C135.346 14.1343 134.891 14.2411 134.362 14.2411C133.71 14.2411 133.165 14.0781 132.727 13.7521C132.288 13.426 131.957 12.937 131.732 12.2849C131.518 11.6216 131.411 10.8009 131.411 9.82282V6.12965H134.143V9.14827C134.143 10.1826 134.244 10.9246 134.447 11.3743C134.66 11.8127 134.992 12.032 135.442 12.032C135.678 12.032 135.891 11.9645 136.083 11.8296C136.274 11.6947 136.437 11.5036 136.572 11.2562C136.707 11.0089 136.808 10.711 136.875 10.3625C136.954 10.0027 136.993 9.60359 136.993 9.16513V6.12965H139.708V12.6728C139.708 13.3811 139.641 14.0275 139.506 14.6121C139.382 15.1967 139.191 15.7083 138.933 16.1467C138.685 16.5852 138.37 16.9506 137.988 17.2429C137.606 17.5464 137.162 17.7713 136.656 17.9174C136.15 18.0636 135.577 18.1367 134.936 18.1367Z" fill="black"/>
<defs>
<clipPath id="clip0_258_656">
<rect width="21.0797" height="19.0675" fill="white"/>
</clipPath>
</defs>
</svg>
